# xmcd CD database file generated by Grip 2.96
# 
# Track frame offsets:
#       150
#       18267
#       26500
#       37825
#       69742
#       83942
#       96410
#       105505
#       122495
#       134865
#       150150
#       161367
#       169540
#       182460
#       196490
#       208457
#       218777
#       230552
#       245644
#       260154
#       270909
#       280126
#       288676
# 
# Disc length: 4052 seconds
# 
# Revision: 0
# Processed by: cddbd v1.4PL0 Copyright (c) Steve Scherf et al.
# Submitted via: Grip 2.96
# 
DISCID=4b0fd217
DTITLE=Bob Dylan - The Dylan-Cash Sessions
DYEAR=1900
DGENRE=
TTITLE0=One Too Many Mornings
TTITLE1=Mountain Dew
TTITLE2=I Still Miss Someone
TTITLE3=Careless Love
TTITLE4=Matchbox
TTITLE5=That's Alright Mama
TTITLE6=Big River
TTITLE7=Girl From the North Country
TTITLE8=I Walk the Line
TTITLE9=You Are My Sunshine
TTITLE10=Ring of Fire
TTITLE11=Guess Things Happen That Way
TTITLE12=Just a Closer Walk With Thee
TTITLE13=Blue Yodel
TTITLE14=Blue Yodel No. 5
TTITLE15=I Threw It All Away
TTITLE16=Living the Blues
TTITLE17=Girl From the North Country (2)
TTITLE18=Nashville Skyline Rag
TTITLE19=I Threw It All Away (2)
TTITLE20=Peggy Day
TTITLE21=Country Pie
TTITLE22=Tonight I'll Be Staying Here With You
EXTD=Tracks 1-15 Dylan and Cash Studio Outtakes\n17-18 Feb. 1969, Columbia St
EXTD=udios, Nashville\n\nTracks 16-18 Dylan on The Johnny Cash Show\n1 May1
EXTD=969, Ryman Auditorium, Nashville\n\nTracks 19-23 Nashville Skyline Qua
EXTD=d Mixes\n13-14 Feb. 1969, Columbia Studios, Nashville
EXTT0=
EXTT1=
EXTT2=
EXTT3=
EXTT4=
EXTT5=
EXTT6=
EXTT7=
EXTT8=
EXTT9=
EXTT10=
EXTT11=
EXTT12=
EXTT13=
EXTT14=
EXTT15=
EXTT16=
EXTT17=
EXTT18=
EXTT19=
EXTT20=
EXTT21=
EXTT22=
PLAYORDER=
